
<svg version="1.1" id="Layer_1" xmlns="http://www.w3.org/2000/svg" xmlns:xlink="http://www.w3.org/1999/xlink" x="0px" y="0px"
	 viewBox="0 0 400 100" style="enable-background:new 0 0 400 100;" xml:space="preserve">
<style type="text/css">
	.st0{fill:#2D6CB5;}
	.st1{fill:#67686B;}
	.st2{fill:#8D2B2E;}
	.st3{fill:#2F6DB3;}
</style>
<g>
	<g>
		<path id="XMLID_182_" class="st0" d="M40.4,62.7c0,0-13.9-26-24.2-30.1c6.2-1.5,7.9-1.9,7.9-1.9S36,42.1,40.4,62.7z"/>
		<path id="XMLID_181_" class="st1" d="M37.2,60.3c0,0-13.2-16.8-21.5-19.1c6-1.6,6-1.6,6-1.6S29.6,46.5,37.2,60.3z"/>
		<g id="XMLID_175_">
			<path id="XMLID_180_" class="st1" d="M63.5,21.7c0.6,0.5,1.2,1.2,1.8,2c1-0.1,2,0,3,0.1c-2-3.3-3.8-5-3.8-5l-41,5.4
				c10.8,12,19.8,40.2,19.8,40.2l3.9,2.3c-2-16.6-14.9-39.3-14.9-39.3S55.9,22.6,63.5,21.7z"/>
		</g>
		<g id="XMLID_167_">
			<path id="XMLID_169_" class="st0" d="M47.6,50.4c1,3.7,3,6.8,5.6,9.1c0.4-0.4,0.7-0.8,1.1-1.3c-1.4-1.6-2.5-3.4-3.3-5.5
				c0.2-0.7,0.8-1.3,2-1.5v0.1c0.1,0.5,0.1,1,0.2,1.4c0.2,0.9,0.5,1.9,0.8,2.7c0.3,0.7,0.6,1.5,0.9,2.1c0.2-0.2,0.4-0.4,0.6-0.6
				c-0.1-0.1-0.1-0.4-0.1-0.5C55.1,55.9,55,55.4,55,55c-0.2-0.9-0.4-1.8-0.4-2.7c0-0.4-0.1-0.9-0.1-1.3v-0.1c1.3,0.1,3,0.4,5.2,1.2
				c0.4-0.4,0.7-0.7,1-1.1c-2-1-4.2-1.8-6.2-2c0-0.2,0-0.5,0.1-0.7c0.1-0.4,0.1-0.9,0.1-1.3c0.1-0.4,0.1-0.9,0.2-1.3
				s0.2-0.8,0.3-1.3c0.1-0.4,0.2-0.8,0.4-1.3c0.1-0.4,0.3-0.8,0.4-1.3c0.1-0.4,0.4-0.8,0.5-1.3c0.1-0.4,0.4-0.8,0.6-1.1
				c0.1-0.1,0.2-0.4,0.4-0.5c3.6,0.4,7.8,1.5,12.1,3.4c0.4-0.4,0.8-0.8,1.3-1.1c-0.6-0.3-1.1-0.5-1.7-0.8c-3.6-1.5-7.1-2.6-10.3-3.2
				c0.2-0.3,0.5-0.6,0.7-0.9c0.3-0.4,0.6-0.6,0.9-1c0.3-0.4,0.6-0.6,0.9-0.9c0.4-0.3,0.6-0.6,1-0.8s0.7-0.5,1.1-0.7
				c0.2-0.1,0.4-0.2,0.6-0.4c0.2-0.1,0.4-0.2,0.6-0.3c0.2-0.1,0.4-0.1,0.6-0.2c3.6,1.3,7.4,3.6,10,5.3c0.3-0.2,0.5-0.4,0.8-0.6
				c-2.6-2.7-5.1-4.4-7.5-5.6c0.4-0.1,0.8-0.1,1.2-0.1c0.8,0,1.8,0.1,2.7,0.3c0.9,0.1,1.8,0.4,2.6,0.8c-1.5-1.1-3.3-1.8-5.2-2
				c-0.5-0.1-1-0.1-1.4-0.1c-0.5,0-1,0-1.5,0.1c-0.2,0-0.4,0.1-0.7,0.1c-1.3-0.5-2.5-0.8-3.5-1c0.1-0.1,0.3-0.1,0.4-0.1
				c6.3-1.8,12.8,0.1,17.2,4.4c0.4-0.3,0.8-0.6,1.1-0.8c-4.7-5.7-12.5-8.4-20.1-6.3c-5.9,1.6-10.3,5.8-12.6,11
				c-1.6,0.6-2.8,1.5-3.4,2.7c-0.8,1.9-0.1,4.3,1.8,6.8C47,48,47.2,49.2,47.6,50.4z M57.2,31.8c1.4-0.8,3.2-0.8,5.2-0.4
				c0,0-0.1,0-0.1,0.1c-0.4,0.2-0.8,0.5-1.3,0.8c-0.4,0.3-0.8,0.6-1.2,0.8c-0.4,0.3-0.8,0.6-1.1,0.9c-0.4,0.4-0.7,0.6-1.1,1
				s-0.6,0.7-0.9,1.1c-0.2,0.3-0.4,0.6-0.6,0.8c-1.3-0.1-2.5-0.2-3.7-0.1C53.8,34.9,55.3,33.2,57.2,31.8z M51.3,39.1
				c1.1-0.2,2.3-0.3,3.7-0.2c-0.1,0.4-0.3,0.6-0.4,1c-0.2,0.4-0.4,0.9-0.6,1.3c-0.4,0.9-0.6,1.8-0.8,2.8c-0.1,0.5-0.2,1-0.3,1.4
				c-0.1,0.5-0.1,1-0.1,1.5c-0.1,0.4-0.1,0.9-0.1,1.4c0,0.2,0,0.5,0,0.7c-1,0.1-1.8,0.3-2.6,0.7C49.3,46,49.8,42.3,51.3,39.1z
				 M46.6,41.9c0.1-0.4,0.4-0.7,0.7-1c-0.4,1.5-0.5,3.2-0.4,4.8C46.2,44.3,46.2,43,46.6,41.9z"/>
		</g>
		<path id="XMLID_166_" class="st2" d="M21.6,56.1c0,0,17.2,13.7,27.8,25.2c0,0,21.9-36,40.5-51.3c0,0-15.3,5.6-41.9,39.1
			C47.9,68.9,30.2,58.4,21.6,56.1z"/>
	</g>
	<g id="Text_00000079446171832616333450000016035384868257032377_">
		<path class="st3" d="M113.5,60.8c0,2.5-0.7,4.6-2,6.4c-1.3,1.8-3.2,3.2-5.5,4.1c-2.4,0.9-5.2,1.3-8.6,1.3c-3.9,0-7.4-0.6-10.7-2
			V60.5c1.5,1.1,3.3,2.1,5.1,2.8c1.9,0.7,3.6,1,5.3,1c1.2,0,2.2-0.2,2.8-0.7c0.7-0.4,1-1.1,1-1.9c0-0.6-0.2-1.1-0.5-1.6
			c-0.3-0.5-0.8-0.9-1.5-1.3c-0.7-0.4-1.9-0.9-3.8-1.6c-6-2.3-9-6-9-11.1c0-3.6,1.4-6.4,4.1-8.6c2.7-2.2,6.4-3.2,11-3.2
			c1.3,0,2.5,0,3.6,0.1c1.1,0.1,2.1,0.2,3,0.4c0.9,0.1,2.1,0.4,3.7,0.9v9.4c-3.1-1.7-6.2-2.6-9.2-2.6c-1.2,0-2.2,0.2-3,0.7
			c-0.8,0.5-1.1,1.1-1.1,1.9c0,0.8,0.3,1.4,0.9,1.9c0.6,0.5,1.9,1.2,3.9,2c3.9,1.5,6.6,3.2,8.2,5.1C112.7,56,113.5,58.2,113.5,60.8"
			/>
		<path class="st3" d="M160.3,72h-11.9l-5.1-21.1c-0.1-0.6-0.3-2.1-0.5-4.5h-0.1c-0.3,2.1-0.5,3.6-0.8,4.5L136.3,72h-12.6l-8.9-37.1
			h12.3l3.1,21.8c0,0.3,0.1,1.1,0.2,2.4l0.1,2.2h0.1c0-0.4,0.1-1.2,0.3-2.3c0.2-1.1,0.3-1.9,0.5-2.4l5.7-21.7h12.2l4.8,22l0.3,2.2
			l0.3,2.2h0.1l0.1-0.9l0.3-3.6l3.2-21.8h11L160.3,72z"/>
		<rect x="173.8" y="34.9" class="st3" width="11.2" height="37.1"/>
		<polygon class="st3" points="203.5,43.6 203.5,50.3 214.5,50.3 214.5,59.1 203.5,59.1 203.5,72 192.3,72 192.3,34.9 215.6,34.9 
			215.6,43.7 203.5,43.7 		"/>
		<polygon class="st3" points="240,43.6 240,72 228.8,72 228.8,43.6 218.4,43.6 218.4,34.9 250.5,34.9 250.5,43.6 		"/>
		<path class="st3" d="M289.9,53c0,3.8-0.8,7.1-2.4,10c-1.6,2.9-3.8,5.1-6.8,6.7c-2.9,1.6-6.3,2.3-10.1,2.3H255V34.9h15.4
			C283.4,34.9,289.9,40.9,289.9,53 M278.1,53.1c0-1.8-0.4-3.4-1.1-4.9c-0.7-1.4-1.8-2.6-3.1-3.4c-1.4-0.8-3-1.2-4.8-1.2h-2.9v19.6
			h3.1c2.7,0,4.8-0.9,6.4-2.8C277.3,58.7,278.1,56.2,278.1,53.1"/>
		<path class="st3" d="M330.4,53.3c0,3.7-0.8,7.1-2.4,10c-1.6,2.9-3.9,5.2-6.7,6.8c-2.9,1.6-6.1,2.4-9.7,2.4c-3.5,0-6.7-0.8-9.5-2.4
			c-2.8-1.6-5.1-3.8-6.7-6.7c-1.6-2.8-2.4-6.1-2.4-9.7c0-3.8,0.8-7.2,2.4-10.2c1.6-3,3.9-5.4,6.8-7c2.9-1.7,6.2-2.5,9.9-2.5
			c3.6,0,6.7,0.8,9.5,2.4c2.8,1.6,5,3.8,6.5,6.8C329.7,46.3,330.4,49.6,330.4,53.3 M318.6,53.7c0-3.1-0.6-5.5-1.8-7.2
			c-1.2-1.8-2.8-2.6-4.8-2.6c-2.2,0-4,0.8-5.2,2.5c-1.2,1.7-1.9,4.1-1.9,7.2c0,3,0.6,5.4,1.8,7.1c1.2,1.7,2.9,2.5,5,2.5
			c1.3,0,2.4-0.4,3.5-1.1c1-0.8,1.8-1.8,2.4-3.3C318.3,57.3,318.6,55.6,318.6,53.7"/>
		<path class="st3" d="M355.4,72l-4.6-10.2c-0.3-0.6-0.5-1.3-0.6-1.9c-0.1-0.6-0.2-1.1-0.2-1.5h-0.1c-0.1,0.4-0.2,1-0.4,1.6
			c-0.1,0.7-0.3,1.3-0.6,2l-4.3,10h-13.3l11.1-18.5l-10.1-18.6h13.5l3.6,9.8c0.3,0.9,0.6,2.1,0.9,3.6h0.1c0.3-1.7,0.6-2.9,1-3.7
			l4.2-9.8H368l-10.4,18.4L368.5,72H355.4z"/>
		<path class="st3" d="M378,39.8c0,1.3-0.5,2.4-1.4,3.3c-0.9,0.9-2,1.3-3.4,1.3c-1.4,0-2.5-0.4-3.4-1.3c-0.9-0.9-1.3-1.9-1.3-3.3
			c0-1.3,0.5-2.4,1.4-3.3c0.9-0.9,2.1-1.3,3.4-1.3c1.3,0,2.5,0.4,3.4,1.3C377.6,37.3,378,38.4,378,39.8 M377.2,39.8
			c0-0.7-0.2-1.4-0.5-2c-0.3-0.6-0.8-1.1-1.4-1.4c-0.6-0.3-1.3-0.5-2-0.5c-0.7,0-1.4,0.2-2,0.5c-0.6,0.3-1.1,0.8-1.4,1.4
			c-0.4,0.6-0.5,1.3-0.5,2c0,0.7,0.2,1.4,0.5,2c0.3,0.6,0.8,1.1,1.4,1.4c0.6,0.3,1.3,0.5,2,0.5c1.1,0,2-0.4,2.8-1.1
			C376.8,41.8,377.2,40.9,377.2,39.8 M375.7,42.6h-1.6l-0.5-1.4c-0.2-0.5-0.4-0.8-0.7-0.8h-0.5v2.2h-1.3v-5.7h2
			c1.5,0,2.3,0.5,2.3,1.6c0,0.8-0.4,1.3-1.3,1.5v0c0.4,0.1,0.7,0.4,0.9,0.9L375.7,42.6z M374.1,38.7c0-0.5-0.3-0.7-1-0.7h-0.6v1.4
			h0.7C373.8,39.4,374.1,39.1,374.1,38.7"/>
	</g>
</g>
</svg>
